<svg width="14.000000" height="14.000000" viewBox="0 0 14 14" fill="none" xmlns="http://www.w3.org/2000/svg" xmlns:xlink="http://www.w3.org/1999/xlink">
	<desc>
			Created with Pixso.
	</desc>
	<defs/>
	<path id="Vector" d="M0 9.66L0 13L3.33 13L10 6.32L12.4 3.93L12.4 3.93C12.73 3.6 12.89 3.43 12.95 3.24C13.01 3.08 13.01 2.9 12.95 2.73C12.89 2.54 12.73 2.37 12.4 2.04L10.95 0.59C10.62 0.26 10.45 0.1 10.26 0.04C10.09 -0.02 9.91 -0.02 9.75 0.04C9.56 0.1 9.39 0.26 9.06 0.59L9.06 0.59L6.67 2.99L0 9.66ZM6.67 2.99L10 " stroke="#CDCDCD" stroke-opacity="1.000000" stroke-width="1.000000" stroke-linejoin="round"/>
</svg>
