<svg width="15.000000" height="14.000000" viewBox="0 0 15 14" fill="none" xmlns="http://www.w3.org/2000/svg" xmlns:xlink="http://www.w3.org/1999/xlink">
	<desc>
			Created with Pixso.
	</desc>
	<defs/>
	<path id="Vector" d="M15 5.43L15 11.43C14.99 12.11 14.72 12.76 14.23 13.24C13.74 13.72 13.07 13.99 12.38 14L7.15 14L7.15 13.14L12.38 13.14C12.84 13.14 13.29 12.96 13.61 12.64C13.94 12.32 14.12 11.88 14.12 11.43L14.12 5.43C14.12 4.98 13.94 4.55 13.61 4.22C13.29 3.9 12.84 3.72 12.38 3.72L1.66 3.72L3.97 5.99L3.35 6.59L0 3.29L3.35 0L3.97 0.6L1.66 2.87L12.38 2.87C13.07 2.87 13.74 3.14 14.23 3.62C14.72 4.1 14.99 4.75 15 5.43Z" fill="#F7F7F7" fill-opacity="1.000000" fill-rule="evenodd"/>
</svg>
